<svg width="641" height="535" viewBox="0 0 641 535" fill="none" xmlns="http://www.w3.org/2000/svg">
    <path d="M614 240.667H91.6L286 46.2667C296.401 35.8656 296.401 19.0693 286 8.668C275.599 -1.73334 258.803 -1.73307 248.401 8.668L8.40132 248.668C6.00025 251.069 3.87012 254.001 2.53679 257.47C-0.129878 263.871 -0.129878 271.334 2.53679 277.735C3.87012 280.933 5.73465 283.871 8.40132 286.538L248.401 526.538C253.735 531.335 260.401 534.001 267.333 534.001C274.265 534.001 280.932 531.335 286.265 526.267C296.666 515.866 296.666 499.069 286.265 488.668L91.5987 294.001H613.999C628.665 294.001 640.665 282.001 640.665 267.335C640.665 252.668 628.665 240.668 613.999 240.668L614 240.667Z" fill="black" />
</svg>
    