<svg width="583" height="673" viewBox="0 0 583 673" fill="none" xmlns="http://www.w3.org/2000/svg">
    <path d="M565.027 77.464H373.813V12.204C373.813 9.03211 372.543 5.99038 370.282 3.75611C368.022 1.52691 364.964 0.292513 361.793 0.334246H221.566C218.394 0.29258 215.337 1.52695 213.076 3.75611C210.816 5.99051 209.545 9.03211 209.545 12.204V77.464H18.3317C8.43586 77.464 0.4104 85.49 0.4104 95.3853C0.4104 105.281 8.43639 113.303 18.3317 113.303H65.1491V637.236C65.1647 646.538 68.8679 655.455 75.446 662.028C82.0241 668.606 90.9407 672.309 100.238 672.33H481.785C491.087 672.309 500.003 668.606 506.582 662.028C513.155 655.455 516.863 646.539 516.879 637.236V113.223H565.04C574.936 113.223 582.962 105.202 582.962 95.3013C582.962 85.4054 574.936 77.384 565.04 77.384L565.027 77.464ZM205.587 535.317C205.587 542.203 201.915 548.562 195.951 552.005C189.993 555.443 182.649 555.443 176.691 552.005C170.728 548.563 167.056 542.203 167.056 535.317V215.824C167.056 208.939 170.728 202.579 176.691 199.141C182.65 195.699 189.993 195.699 195.951 199.141C201.915 202.579 205.587 208.938 205.587 215.824V535.317ZM313.259 535.317H313.253C313.253 542.203 309.582 548.562 303.623 552.005C297.66 555.443 290.316 555.443 284.358 552.005C278.399 548.563 274.728 542.203 274.728 535.317V215.824C274.728 208.939 278.399 202.579 284.358 199.141C290.316 195.699 297.66 195.699 303.623 199.141C309.582 202.579 313.253 208.938 313.253 215.824L313.259 535.317ZM415.103 535.317H415.097C415.097 542.203 411.426 548.562 405.467 552.005C399.509 555.443 392.165 555.443 386.202 552.005C380.243 548.563 376.572 542.203 376.572 535.317V215.824C376.572 208.939 380.243 202.579 386.202 199.141C392.165 195.699 399.509 195.699 405.467 199.141C411.426 202.579 415.097 208.938 415.097 215.824L415.103 535.317ZM246.423 67.5307V48.5667C246.464 43.1396 250.855 38.7541 256.282 38.7125H331.621C337.048 38.7542 341.433 43.1396 341.475 48.5667V67.5307C341.433 72.9577 337.048 77.3484 331.621 77.39H256.355C250.902 77.39 246.465 72.9889 246.423 67.5307H246.423Z" fill="#DA1E48" />
</svg>
    