<svg width="643" height="586" viewBox="0 0 643 586" fill="none" xmlns="http://www.w3.org/2000/svg">
    <path d="M183.067 0.73465C128.525 0.73465 82.1453 26.1507 50.3013 64.9013C18.4573 103.651 0.598633 155.595 0.598633 209.808C0.598633 300.887 36.7293 367.421 93.6973 423.075C150.667 478.725 227.897 524.752 313.497 580.568L321.664 585.933L329.831 580.568C415.429 524.745 492.657 478.719 549.631 423.075C606.6 367.424 642.729 300.881 642.729 209.808C642.729 155.605 624.869 103.663 593.032 64.9013C561.188 26.152 514.808 0.73465 460.267 0.73465C398.251 0.73465 349.116 30.1933 321.667 54.1667C294.213 30.1933 245.083 0.73465 183.067 0.73465V0.73465ZM183.067 30.5986C241.728 30.5986 292.384 65.328 310.931 84.2653L321.665 94.9997L332.399 84.2653C350.946 65.328 401.607 30.5986 460.263 30.5986C505.602 30.5986 542.919 51.1613 569.93 84.0307C596.941 116.9 612.862 162.219 612.862 209.796C612.862 293.203 581.789 349.663 528.627 401.596C477.278 451.757 404.174 496.632 321.667 550.236C239.157 496.637 166.054 451.763 114.694 401.596C61.5328 349.669 30.4648 293.205 30.4648 209.796C30.4648 162.217 46.3914 116.9 73.3968 84.0307C100.407 51.1613 137.725 30.5986 183.063 30.5986H183.067Z" fill="black" />
</svg>
    