<svg width="555" height="528" viewBox="0 0 555 528" fill="none" xmlns="http://www.w3.org/2000/svg">
    <path d="M475.28 352.16H519.197C527.041 352.16 534.291 347.978 538.213 341.181C542.135 334.389 542.135 326.019 538.213 319.227C534.291 312.431 527.041 308.248 519.197 308.248H475.28C467.436 308.248 460.187 304.061 456.264 297.269C452.342 290.472 452.342 282.102 456.264 275.31C460.186 268.518 467.436 264.331 475.28 264.331H519.192C523.234 264.331 526.515 261.055 526.515 257.013V237.571C516.406 237.118 506.567 234.175 497.87 229.008L277.656 96.9509L57.4429 229.008C48.745 234.175 38.9069 237.118 28.7976 237.571V257.013C28.7976 261.055 32.0788 264.331 36.1205 264.331H94.6779H94.6727C102.516 264.331 109.766 268.519 113.689 275.31C117.611 282.102 117.611 290.472 113.689 297.269C109.767 304.061 102.517 308.248 94.6727 308.248H50.7553C42.9116 308.248 35.6673 312.431 31.7393 319.227C27.8174 326.019 27.8174 334.389 31.7393 341.181C35.6664 347.978 42.9112 352.16 50.7553 352.16H94.6727C102.516 352.16 109.766 356.347 113.689 363.139C117.611 369.936 117.611 378.306 113.689 385.098C109.767 391.895 102.517 396.077 94.6727 396.077H50.7553C42.9116 396.077 35.6673 400.265 31.7393 407.056C27.8174 413.848 27.8174 422.218 31.7393 429.015C35.6664 435.807 42.9112 439.994 50.7553 439.994H94.6727C102.516 439.994 109.766 444.176 113.689 450.973C117.611 457.765 117.611 466.135 113.689 472.932C109.767 479.724 102.517 483.911 94.6727 483.911H50.7553C42.9116 483.911 35.6673 488.093 31.7393 494.885C27.8174 501.682 27.8174 510.052 31.7393 516.844C35.6664 523.641 42.9112 527.823 50.7553 527.823H519.182C527.026 527.823 534.275 523.641 538.198 516.844C542.12 510.052 542.12 501.683 538.198 494.885C534.276 488.093 527.026 483.911 519.182 483.911H475.265C467.421 483.911 460.171 479.724 456.249 472.932C452.327 466.135 452.327 457.765 456.249 450.973C460.171 444.176 467.421 439.994 475.265 439.994H519.182C527.026 439.994 534.275 435.807 538.198 429.015C542.12 422.218 542.12 413.848 538.198 407.056C534.276 400.265 527.026 396.077 519.182 396.077H475.265C467.421 396.077 460.171 391.895 456.249 385.098C452.327 378.306 452.327 369.937 456.249 363.139C460.171 356.347 467.421 352.16 475.265 352.16H475.28ZM330.36 422.848C330.36 430.931 323.808 437.484 315.72 437.484H239.605C231.517 437.484 224.965 430.932 224.965 422.848V316.613C224.965 308.525 231.517 301.973 239.605 301.973H315.72C323.809 301.973 330.36 308.525 330.36 316.613V422.848ZM550.92 189.061C547.519 194.738 541.998 198.827 535.576 200.431C529.159 202.04 522.362 201.03 516.685 197.624L277.659 54.2904L38.632 197.624C32.9549 201.046 26.1476 202.066 19.72 200.462C13.2877 198.858 7.76158 194.764 4.35598 189.082C0.944509 183.4 -0.0606821 176.592 1.55385 170.165C3.16838 163.738 7.27264 158.222 12.9653 154.821L258.592 7.52731C264.311 3.78251 270.852 1.48572 277.66 0.85025C284.467 1.48566 291.009 3.78251 296.728 7.52731L542.355 154.821C548.027 158.227 552.12 163.748 553.724 170.17C555.328 176.587 554.323 183.384 550.917 189.061L550.92 189.061Z" fill="#DA1E48" />
</svg>
    