<svg width="453" height="654" viewBox="0 0 453 654" fill="none" xmlns="http://www.w3.org/2000/svg">
    <path d="M422.013 113.44C381.248 42.8306 308.216 0.669312 226.667 0.669312C145.117 0.669312 72.08 42.8306 31.32 113.44C-9.44533 184.044 -9.44533 268.373 31.32 339L206.467 642.333C210.623 649.568 218.347 654 226.675 654C235.002 654 242.727 649.568 246.883 642.333L422.029 339C462.789 268.396 462.789 184.067 422.029 113.44H422.013ZM226.667 340.56C163.62 340.56 112.333 289.273 112.333 226.227C112.333 163.18 163.62 111.893 226.667 111.893C289.713 111.893 341 163.18 341 226.227C341 289.273 289.713 340.56 226.667 340.56Z" fill="#DA1E48" />
</svg>
    