<svg width="747" height="747" viewBox="0 0 747 747" fill="none" xmlns="http://www.w3.org/2000/svg">
    <path d="M712 338.333H408.667V35C408.667 22.4948 401.995 10.9427 391.167 4.68799C380.339 -1.56201 366.995 -1.56201 356.167 4.68799C345.339 10.9432 338.667 22.4947 338.667 35V338.333H35.3333C22.8281 338.333 11.276 345.005 5.0213 355.833C-1.2287 366.661 -1.2287 380.005 5.0213 390.833C11.2765 401.661 22.828 408.333 35.3333 408.333H338.667V711.667C338.667 724.172 345.339 735.724 356.167 741.979C366.995 748.229 380.339 748.229 391.167 741.979C401.995 735.724 408.667 724.172 408.667 711.667V408.333H712C724.505 408.333 736.057 401.661 742.312 390.833C748.562 380.005 748.562 366.661 742.312 355.833C736.057 345.005 724.505 338.333 712 338.333Z" fill="white" />
</svg>
    